<svg xmlns="http://www.w3.org/2000/svg" width="980" height="998.694" viewBox="0 0 980 998.694"><defs><style>.a{fill:#e4e4ea;}.b{fill:#b1b1b1;}.c{fill:#929292;}.d{fill:#bebebe;}.e{fill:#c00046;}.f{fill:#9e003a;}.g{fill:#ce004b;}.h,.p,.u{fill:#d4004e;}.i{fill:#b70043;}.j{fill:#5fa153;}.k{fill:#4e8545;}.l{fill:#66ad59;}.m{fill:#d5971b;}.n{fill:#b07d16;}.o{fill:#e5a31c;}.p{font-size:16px;font-family:SegoeUI-Bold, Segoe UI;font-weight:700;letter-spacing:0.4em;}.q,.r{font-family:YuGothicUI-Bold, Yu Gothic UI;}.r,.t{font-size:12px;}.s{fill:none;stroke:#e00052;stroke-miterlimit:10;stroke-width:3px;stroke-dasharray:3 7;}.t{fill:#e00052;letter-spacing:0.025em;}.t,.u{font-family:SegoeUI, Segoe UI;}.u{font-size:76px;letter-spacing:0.03em;}</style></defs><g transform="translate(-194.401 193.611)"><g transform="translate(174.171 19.064)"><g transform="translate(941.668 101.579)"><path class="a" d="M1022.759,129.636l-18.229,13.5,18.968,13.781-20.141,14.917-38.42-27.914,38.37-28.417Z" transform="translate(-964.936 -115.503)"/></g><g transform="translate(902.079 87.521)"><g transform="translate(20.093)"><path class="b" d="M972,102.178,951.855,117.1,931.68,102.441l20.146-14.92Z" transform="translate(-931.68 -87.521)"/><g transform="translate(20.174 14.657)"><path class="c" d="M981.547,109.114l.3,23.066L961.7,147.1l-.3-23.066Z" transform="translate(-961.401 -109.114)"/></g><g transform="translate(0 14.92)"><path class="d" d="M951.855,124.158l.3,23.066-20.174-14.657-.3-23.066Z" transform="translate(-931.68 -109.501)"/></g></g><g transform="translate(0 28.942)"><path class="b" d="M942.4,157.879,922.254,172.8l-20.174-14.658,20.146-14.92Z" transform="translate(-902.079 -143.221)"/><g transform="translate(20.174 14.658)"><path class="c" d="M951.946,164.815l.3,23.066L932.1,202.8l-.3-23.066Z" transform="translate(-931.8 -164.815)"/></g><g transform="translate(0 14.92)"><path class="d" d="M922.254,179.859l.3,23.066-20.175-14.658-.3-23.066Z" transform="translate(-902.079 -165.202)"/></g></g><g transform="translate(40.321 28.942)"><path class="b" d="M1001.8,157.879,981.654,172.8,961.48,158.142l20.146-14.92Z" transform="translate(-961.48 -143.222)"/><g transform="translate(20.174 14.657)"><path class="c" d="M1011.346,164.815l.3,23.066L991.5,202.8l-.3-23.066Z" transform="translate(-991.2 -164.815)"/></g><g transform="translate(0 14.92)"><path class="d" d="M981.654,179.859l.3,23.066-20.174-14.657-.3-23.066Z" transform="translate(-961.48 -165.202)"/></g></g></g></g><g transform="translate(646.643 188.007)"><g transform="translate(39.857 7.86)"><path class="a" d="M744.954,195.9l-21.9,16.218L689.71,187.893l21.9-16.218Z" transform="translate(-689.71 -171.675)"/></g><path class="e" d="M700.412,185.851,664.24,212.64l-36.269-26.351L664.143,159.5Z" transform="translate(-627.971 -159.5)"/><g transform="translate(36.269 26.351)"><path class="f" d="M720.323,200.318l.284,21.937-36.172,26.789-.284-21.937Z" transform="translate(-684.151 -200.318)"/></g><g transform="translate(0 26.789)"><path class="g" d="M664.24,227.348l.284,21.937-36.269-26.351L627.971,201Z" transform="translate(-627.971 -200.997)"/></g></g><g transform="translate(797.604 237.57)"><g transform="translate(11.67 7.368)"><path class="a" d="M823.724,267.91l-7.65,5.666-11.4-8.282,7.65-5.666Z" transform="translate(-804.676 -259.628)"/></g><path class="e" d="M814.19,259.533l-11.382,8.43-11.393-8.277,11.382-8.43Z" transform="translate(-791.415 -251.255)"/><g transform="translate(11.393 8.277)"><path class="f" d="M815.744,260.661l.169,13.029-11.382,8.43-.169-13.029Z" transform="translate(-804.361 -260.661)"/></g><g transform="translate(0 8.43)"><path class="g" d="M802.808,269.112l.169,13.029-11.393-8.277-.169-13.029Z" transform="translate(-791.415 -260.835)"/></g></g><g transform="translate(726.744 248.685)"><g transform="translate(23.073 6.59)"><path class="a" d="M926.859,275.8l-16.973,12.57-23.229-16.877,16.973-12.57Z" transform="translate(-886.657 -258.921)"/></g><g transform="translate(0)"><path class="e" d="M906.85,268.3l-23.19,17.175-23.223-16.872,23.19-17.175Z" transform="translate(-860.438 -251.432)"/><g transform="translate(23.223 16.872)"><path class="f" d="M910.017,270.605l.248,19.138-23.19,17.175-.248-19.138Z" transform="translate(-886.827 -270.605)"/></g><g transform="translate(0 17.175)"><path class="g" d="M883.661,287.821l.248,19.138-23.223-16.872-.248-19.138Z" transform="translate(-860.438 -270.949)"/></g></g></g><g transform="translate(-74.591 -193.486)"><g transform="translate(1183.247 500.914)"><path class="a" d="M994.693,543.553l-22.98,17.019-42.427-30.825,22.98-17.019Z" transform="translate(-929.287 -512.728)"/></g><g transform="translate(1103.77 558.642)"><path class="a" d="M955.588,571.956l-22.98,17.019-42.427-30.825,22.98-17.019Z" transform="translate(-890.182 -541.132)"/></g><g transform="translate(796.324 782.002)"><path class="a" d="M804.316,681.856l-22.98,17.019L738.91,668.05l22.98-17.019Z" transform="translate(-738.91 -651.031)"/></g><g transform="translate(947.284 672.453)"><path class="a" d="M878.593,627.955l-22.98,17.019-42.427-30.825,22.98-17.019Z" transform="translate(-813.187 -597.13)"/></g><g transform="translate(992.221 475.911)"><path class="a" d="M927.585,550.782,904.606,567.8,835.3,517.445l22.98-17.019Z" transform="translate(-835.297 -500.426)"/></g><g transform="translate(1071.485 418.398)"><g transform="translate(0 0)"><path class="a" d="M966.573,522.483l-22.967,17.009L874.3,489.137l22.967-17.009Z" transform="translate(-874.297 -472.128)"/></g></g><g transform="translate(914.993 532.213)"><path class="a" d="M889.587,578.484,866.608,595.5,797.3,545.147l22.98-17.019Z" transform="translate(-797.299 -528.128)"/></g><g transform="translate(835.718 589.722)"><path class="a" d="M850.582,606.78,827.6,623.8l-69.309-50.356,22.979-17.019Z" transform="translate(-758.293 -556.424)"/></g><g transform="translate(641.958 398.18)"><g transform="translate(386.823)"><g transform="translate(0.466)"><path class="h" d="M896.058,462.18l69.533,51.5-42.543,30.909-69.534-51.5Z" transform="translate(-853.515 -462.18)"/></g><g transform="translate(69.534 51.497)"><path class="i" d="M930.507,487.518l-.466,35.909L887.5,554.336l.466-35.908Z" transform="translate(-887.498 -487.518)"/></g><g transform="translate(0 30.909)"><path class="f" d="M923.285,528.885l-.466,35.909-69.533-51.5.466-35.909Z" transform="translate(-853.286 -477.388)"/></g></g><g transform="translate(307.186 57.86)"><g transform="translate(0.466)"><path class="h" d="M856.874,490.648l69.533,51.5-42.543,30.909-69.534-51.5Z" transform="translate(-814.331 -490.648)"/></g><g transform="translate(69.534 51.497)"><path class="i" d="M891.323,515.987l-.466,35.908L848.314,582.8l.465-35.909Z" transform="translate(-848.314 -515.987)"/></g><g transform="translate(0 30.909)"><path class="f" d="M884.1,557.354l-.466,35.908-69.534-51.5.465-35.909Z" transform="translate(-814.102 -505.857)"/></g></g><g transform="translate(229.814 114.065)"><g transform="translate(0.466)"><path class="h" d="M818.818,518.3l69.533,51.5L845.8,600.719l-69.534-51.5Z" transform="translate(-776.262 -518.303)"/></g><g transform="translate(69.534 51.497)"><path class="i" d="M853.266,543.641l-.466,35.909-42.556,30.919.466-35.909Z" transform="translate(-810.245 -543.641)"/></g><g transform="translate(0 30.919)"><path class="f" d="M846.032,585.013l-.466,35.909-69.534-51.5.466-35.909Z" transform="translate(-776.033 -533.516)"/></g></g><g transform="translate(150.862 171.426)"><g transform="translate(0.466)"><path class="h" d="M779.971,546.526l69.534,51.5-42.556,30.919-69.533-51.5Z" transform="translate(-737.416 -546.526)"/></g><g transform="translate(69.534 51.497)"><path class="i" d="M814.42,571.864l-.466,35.909L771.4,638.691l.466-35.909Z" transform="translate(-771.399 -571.864)"/></g><g transform="translate(0 30.919)"><path class="f" d="M807.186,613.236l-.466,35.909-69.533-51.5.466-35.908Z" transform="translate(-737.186 -561.739)"/></g></g><g transform="translate(498.839 82.96)"><g transform="translate(0.466)"><path class="h" d="M951.173,503l42.5,31.473L951.125,565.38l-42.5-31.473Z" transform="translate(-908.63 -502.998)"/></g><g transform="translate(42.496 31.473)"><path class="i" d="M972.318,518.484l-.466,35.909L929.31,585.3l.465-35.909Z" transform="translate(-929.31 -518.484)"/></g><g transform="translate(0 30.909)"><path class="f" d="M951.362,549.679l-.466,35.909-42.5-31.472.466-35.909Z" transform="translate(-908.401 -518.207)"/></g></g><g transform="translate(341.83 140.82)"><g transform="translate(0.466)"><path class="h" d="M951.292,531.467l42.5,31.473L873.872,650.063l-42.5-31.472Z" transform="translate(-831.377 -531.467)"/></g><g transform="translate(42.496 31.473)"><path class="i" d="M972.438,546.952l-.466,35.909L852.057,669.985l.466-35.908Z" transform="translate(-852.057 -546.952)"/></g><g transform="translate(0 87.124)"><path class="f" d="M874.109,605.807l-.466,35.908-42.5-31.473.466-35.908Z" transform="translate(-831.148 -574.334)"/></g></g><g transform="translate(73.503 227.64)"><g transform="translate(197.055 58.219)"><path class="i" d="M873.918,602.83l-.466,35.909L796.08,694.953l.466-35.908Z" transform="translate(-796.08 -602.83)"/></g><g transform="translate(112.016 82.96)"><path class="i" d="M797.247,615l-.466,35.909-42.543,30.909.466-35.908Z" transform="translate(-754.239 -615.004)"/></g><g transform="translate(0 30.909)"><path class="f" d="M854.1,703.826l-.466,35.909L699.124,625.3l.466-35.909Z" transform="translate(-699.124 -589.393)"/></g><g transform="translate(112.482 26.746)"><path class="h" d="M874.383,587.345l42.5,31.473-77.372,56.214-42.543,30.909-42.5-31.473,42.543-30.909Z" transform="translate(-754.468 -587.345)"/></g><g transform="translate(154.512 114.433)"><path class="i" d="M818.156,630.489l-.466,35.909-42.543,30.909.466-35.909Z" transform="translate(-775.148 -630.489)"/></g><g transform="translate(0.466)"><path class="h" d="M741.9,574.185l112.016,82.96-42.543,30.91,42.5,31.472,42.543-30.909-42.543,30.909L699.353,605.094Z" transform="translate(-699.353 -574.185)"/></g><g transform="translate(112.016 113.87)"><path class="f" d="M797.2,661.685l-.466,35.909-42.5-31.473.466-35.909Z" transform="translate(-754.239 -630.212)"/></g><g transform="translate(154.512 114.433)"><path class="i" d="M818.156,630.489l-.466,35.909-42.543,30.909.466-35.909Z" transform="translate(-775.148 -630.489)"/></g></g><g transform="translate(0 281.034)"><g transform="translate(0.466)"><path class="h" d="M705.744,600.456,860.255,714.889,817.7,745.808,663.187,631.375Z" transform="translate(-663.187 -600.456)"/></g><g transform="translate(154.512 114.433)"><path class="i" d="M782,656.76l-.465,35.909-42.557,30.919.466-35.909Z" transform="translate(-738.982 -656.76)"/></g><g transform="translate(0 30.919)"><path class="f" d="M817.936,730.1l-.466,35.909L662.958,651.578l.466-35.908Z" transform="translate(-662.958 -615.669)"/></g></g></g></g><g transform="translate(413 342)"><g transform="translate(-108.599 -535.611)"><path class="j" d="M353.068-367.758,122.432-196.946-108.6-364.8,122.038-535.611Z" transform="translate(108.599 535.611)"/><g transform="translate(231.03 167.853)"><path class="k" d="M638.719-160.221l.173,13.335L408.255,23.926l-.173-13.335Z" transform="translate(-408.082 160.221)"/></g><g transform="translate(0 170.811)"><path class="l" d="M122.432,14.248l.173,13.335L-108.426-140.27l-.173-13.335Z" transform="translate(108.599 153.605)"/></g></g></g><g transform="translate(-32.496 114.131)"><g transform="translate(347.642 475.968)"><path class="a" d="M477.011,507.213,449.68,527.454l-35.854-26.049,27.331-20.242Z" transform="translate(-413.826 -481.164)"/></g><g transform="translate(303.999 472.69)"><path class="b" d="M382.216,498.739l-42.363,31.375L304,504.065l42.363-31.375Z" transform="translate(-303.999 -472.69)"/><g transform="translate(35.854 26.049)"><path class="c" d="M439.052,540.033l.307,23.66L397,595.067l-.307-23.66Z" transform="translate(-396.689 -540.033)"/></g><g transform="translate(0 31.375)"><path class="d" d="M339.853,579.849l.307,23.66L304.306,577.46,304,553.8Z" transform="translate(-303.999 -553.8)"/></g></g></g><g transform="translate(27.782 51.546)"><g transform="translate(1041.172 535.346)"><g transform="translate(0)"><path class="a" d="M1132.041,566.7l-30.406,22.519-39.964-29.036,30.406-22.519Z" transform="translate(-1061.67 -537.664)"/></g></g><g transform="translate(999.098 530.589)"><path class="m" d="M1081.351,561.354l-39.908,29.556L999.1,560.145l39.908-29.556Z" transform="translate(-999.098 -530.589)"/><g transform="translate(42.345 30.766)"><path class="n" d="M1101.981,576.343l.324,24.956L1062.4,630.855l-.323-24.956Z" transform="translate(-1062.073 -576.343)"/></g><g transform="translate(0 29.556)"><path class="o" d="M1041.443,605.31l.323,24.956L999.422,599.5l-.324-24.956Z" transform="translate(-999.098 -574.544)"/></g></g></g><g transform="translate(194.401 484.426)"><text class="p" transform="translate(86 22)"><tspan x="-81.402" y="0">- </tspan><tspan class="q" y="0">科学を灯そう</tspan><tspan y="0" xml:space="preserve"> -</tspan><tspan class="r"><tspan x="-52.721" y="30">イチヨンヨンラボ</tspan></tspan></text></g><g transform="translate(44.551 6.083)"><line class="s" y2="59" transform="translate(638 740)"/><text class="t" transform="translate(639.851 728.306)"><tspan x="-21.354" y="0">SCROLL</tspan></text></g><text class="u" transform="translate(194.401 273.924)"><tspan x="0" y="0">Light Up </tspan><tspan x="0" y="87">Your</tspan><tspan x="0" y="174">Science</tspan></text></g></svg>